<?xml version="1.0" encoding="UTF-8"?>
<svg id="Camada_2" data-name="Camada 2" xmlns="http://www.w3.org/2000/svg" viewBox="0 0 360.81 230.55">
  <defs>
    <style>
      .cls-1 {
        fill: #fff;
      }
    </style>
  </defs>
  <g id="Camada_1-2" data-name="Camada 1">
    <g>
      <g>
        <path class="cls-1" d="m51.53,205.73h20.04c-2.72,18.06-18.39,24.82-35.54,24.82-18.8,0-36.03-8-36.03-30.1s17.23-30.01,36.03-30.01c17.15,0,32.82,6.76,35.54,24.82h-20.04c-1.81-7.34-6.18-11.63-15.5-11.63-11.13,0-16.24,6.68-16.24,16.82s5.11,16.9,16.24,16.9c9.32,0,13.69-4.29,15.5-11.63Z"/>
        <path class="cls-1" d="m151.63,200.46c0,22.1-18.88,30.1-37.6,30.1s-37.52-8-37.52-30.1,18.8-30.01,37.52-30.01,37.6,8,37.6,30.01Zm-19.87,0c0-10.47-6.35-16.82-17.73-16.82s-17.73,6.35-17.73,16.82,6.43,16.9,17.73,16.9,17.73-6.35,17.73-16.9Z"/>
        <path class="cls-1" d="m258.24,210.6h-15.34v18.72h-13.77c-3.19,0-5.77-2.59-5.77-5.77v-51.94h41.06c15.91,0,24.65,7.34,24.65,19.13,0,8.74-4.45,14.35-11.79,17.32l13.69,21.27h-21.03l-11.71-18.72Zm-15.34-13.19h18.72c5.77,0,7.59-2.97,7.59-6.68s-2.39-5.77-7.59-5.77h-18.72v12.45Z"/>
        <path class="cls-1" d="m215.94,229.32h-51.89c-3.22,0-5.83-2.61-5.83-5.83v-51.89h56.89v13.36h-37.35v8.08h35.04v13.36h-35.04v9.65h38.18v13.28Z"/>
        <path class="cls-1" d="m336.89,171.6h-40.98v51.87c0,3.23,2.62,5.85,5.85,5.85h13.69v-17.98h19.13c15.91,0,26.22-5.69,26.22-20.2,0-11.79-8-19.54-23.91-19.54Zm-4.62,26.55h-16.82v-13.19h16.82c5.77,0,8.66,1.65,8.66,6.18s-2.56,7.01-8.66,7.01Z"/>
      </g>
      <g>
        <path class="cls-1" d="m211.77,58.13c-5.19-4.35-9.54,0-9.54,0l-19.36,19.36,10.66,10.66,21.46-21.46s1.02-5-3.23-8.56Z"/>
        <path class="cls-1" d="m231.5,21.17c-28.22-28.22-73.98-28.22-102.2,0-28.22,28.22-28.22,73.98,0,102.2,28.22,28.22,73.98,28.22,102.2,0,28.22-28.22,28.22-73.98,0-102.2Zm-.11,57.32l-46.35,46.35c-3.58,3.58-9.7,1.86-10.88-3.07-2.56-10.7-8.02-20.84-16.37-29.19-7.48-7.48-16.4-12.64-25.88-15.48-4.71-1.41-6.23-7.32-2.75-10.8l31.44-31.44c1.21-1.21,2.84-1.92,4.55-1.9,7.03.06,14.04,2.4,19.83,7.03,1.66,1.33,3.9,1.74,5.92,1.06,11.23-3.74,24.11-1.15,33.05,7.79,7.03,7.03,10.14,16.49,9.32,25.67-.13,1.51-.81,2.91-1.88,3.98Z"/>
      </g>
    </g>
  </g>
</svg>